# xmcd
#
# Track frame offsets:
#	150
#	11374
#	24047
#	35003
#	48141
#	60945
#	72480
#	86063
#	96535
#	105982
#	118529
#	132017
#	144624
#	157027
#	171279
#
# Disc length: 2456 seconds
#
# Revision: 0
# Processed by: cddbd v1.5.2PL0 Copyright (c) Steve Scherf et al.
# Submitted via: audiograbber 1.83.01
#
DISCID=be09960f
DTITLE=Various Artist - The Soul Story: Volume 2 - Disc 1
DYEAR=2006
DGENRE=Soul
TTITLE0=Sam and Dave - Hold On, I'm Comin' 
TTITLE1=Wilson Pickett - Don't Let The Green Grass Fool You
TTITLE2=Aretha Franklin - Respect
TTITLE3=Otis Redding - I've Been Loving You Too Long (To Stop Now)
TTITLE4=Booker T. and the MG's - Green Onions
TTITLE5=Clarence Carter - Slip Away
TTITLE6=The Staple Singers - I'll Take You There
TTITLE7=Arthur Conley - Sweet Soul Music
TTITLE8=Bill Withers - Ain't No Sunshine
TTITLE9=J.J. Jackson - But It's Alright
TTITLE10=Ben E. King - Stand By Me
TTITLE11=Betty Wright - Clean Up Woman
TTITLE12=Jerry Butler and the Impressions - For Your Precious Love
TTITLE13=Archie Bell and the Drells - Tighten Up
TTITLE14=Percy Sledge - When A Man Loves A Woman
EXTD=
EXTT0=
EXTT1=
EXTT2=
EXTT3=
EXTT4=
EXTT5=
EXTT6=
EXTT7=
EXTT8=
EXTT9=
EXTT10=
EXTT11=
EXTT12=
EXTT13=
EXTT14=
PLAYORDER=
